<svg xmlns="http://www.w3.org/2000/svg" width="1600" height="1000" viewBox="0 0 1600 1000">
<defs><linearGradient id="bg" x1="0" y1="0" x2="1" y2="1"><stop offset="0" stop-color="#e8f7ff"/><stop offset="1" stop-color="#bfe8ff"/></linearGradient></defs>
<rect width="1600" height="1000" fill="url(#bg)"/>
<text x="80" y="90" font-family="Arial, sans-serif" font-size="54" font-weight="700" fill="#136b8c">Japan Atelier Trips · Route Map</text>
<text x="80" y="145" font-family="Arial, sans-serif" font-size="28" fill="#306a7a">请由设计师替换为正式日本地图：东京、长野、飞驒、金泽、京都、大阪、出云、松江、冈山、直岛、丰岛、日光、箱根、河口湖。</text>
<g font-family="Arial, sans-serif" font-size="25" fill="#1b4054">
<circle cx="1090" cy="325" r="16" fill="#00a7c8"/><text x="1120" y="333">东京 Tokyo</text>
<circle cx="880" cy="280" r="16" fill="#00a7c8"/><text x="910" y="288">长野 / 白马 Nagano / Hakuba</text>
<circle cx="720" cy="430" r="16" fill="#16a085"/><text x="750" y="438">飞驒高山 / 金泽 Hida / Kanazawa</text>
<circle cx="820" cy="555" r="16" fill="#16a085"/><text x="850" y="563">京都 / 大阪 Kyoto / Osaka</text>
<circle cx="560" cy="610" r="16" fill="#2874a6"/><text x="590" y="618">出云 / 松江 Izumo / Matsue</text>
<circle cx="690" cy="665" r="16" fill="#2874a6"/><text x="720" y="673">冈山 / 直岛 / 丰岛 Setouchi Art Islands</text>
<circle cx="1025" cy="445" r="16" fill="#f39c12"/><text x="1055" y="453">河口湖 / 箱根 Fuji / Hakone</text>
</g>
<path d="M1090 325 C980 300, 930 290, 880 280" stroke="#00a7c8" stroke-width="8" fill="none" opacity="0.75"/>
<path d="M1090 325 C1000 390, 890 510, 820 555" stroke="#16a085" stroke-width="8" fill="none" opacity="0.75"/>
<path d="M820 555 C725 575, 640 610, 560 610 C610 640,650 650,690 665" stroke="#2874a6" stroke-width="8" fill="none" opacity="0.75"/>
<path d="M1090 325 C1050 365,1040 400,1025 445" stroke="#f39c12" stroke-width="8" fill="none" opacity="0.75"/>
</svg>
